<?xml version="1.0" standalone="no"?>
<!DOCTYPE svg PUBLIC "-//W3C//DTD SVG 20010904//EN"
 "http://www.w3.org/TR/2001/REC-SVG-20010904/DTD/svg10.dtd">
<svg version="1.0" xmlns="http://www.w3.org/2000/svg"
 width="260.000000pt" height="260.000000pt" viewBox="0 0 260.000000 260.000000"
 preserveAspectRatio="xMidYMid meet">
<metadata>
Created by potrace 1.14, written by Peter Selinger 2001-2017
</metadata>
<g transform="translate(0.000000,260.000000) scale(0.100000,-0.100000)"
fill="#000000" stroke="none">
<path d="M600 2173 c-27 -10 -40 -36 -40 -85 l0 -48 -114 0 c-160 0 -159 1
-165 -165 -1 -17 -8 -20 -51 -21 -33 0 -56 -6 -70 -19 -19 -17 -20 -29 -20
-255 0 -288 -7 -273 132 -272 114 2 131 14 131 91 l0 51 78 0 79 0 0 -115 c0
-63 -3 -115 -7 -116 -5 0 -25 -2 -46 -4 -63 -4 -78 -27 -79 -126 l-2 -84 -122
0 c-150 -1 -164 -8 -164 -92 0 -29 -3 -52 -7 -52 -41 7 -96 -4 -113 -21 -19
-19 -21 -32 -19 -128 2 -132 8 -144 82 -150 46 -4 55 -8 69 -33 10 -16 24 -29
33 -29 9 0 21 -14 27 -31 6 -17 21 -34 35 -40 13 -5 163 -9 332 -9 l308 0 21
23 c12 13 22 29 22 35 0 13 -1 13 50 16 55 3 79 15 86 42 l6 24 183 0 c101 0
195 4 208 9 27 10 40 39 39 81 l-1 25 267 0 c147 -1 279 3 294 8 16 5 30 20
37 38 7 20 17 29 31 29 15 0 25 10 33 30 l11 30 121 0 c130 0 161 10 167 53 3
19 10 22 53 25 70 4 85 25 85 122 0 41 -3 85 -6 96 -7 27 -44 44 -94 44 l-40
0 0 49 c0 32 -6 56 -18 71 -17 21 -26 22 -145 22 -115 -1 -127 1 -127 17 0 39
-31 50 -140 53 l-105 3 -1 145 c0 163 -5 187 -39 196 -13 3 -27 16 -31 27 -16
52 -29 57 -161 57 -100 0 -123 3 -123 14 0 22 -51 58 -75 53 -11 -3 -31 -2
-44 2 -22 6 -24 12 -25 73 -1 82 -15 99 -85 106 -30 2 -51 9 -50 16 6 46 -3
87 -23 106 -21 19 -33 20 -337 19 -174 0 -323 -3 -331 -6z"/>
</g>
</svg>
